HIERARCHY
ROOT Hips
{
	OFFSET -0.001795 -0.223333 0.028219
	CHANNELS 6 Xposition Yposition Zposition Zrotation Yrotation Xrotation 
	JOINT LeftUpLeg
	{
		OFFSET 0.069520 -0.091406 -0.006815
		CHANNELS 3 Zrotation Yrotation Xrotation
		JOINT LeftLeg
		{
			OFFSET 0.034277 -0.375199 -0.004496
			CHANNELS 3 Zrotation Yrotation Xrotation
			JOINT LeftFoot
			{
				OFFSET -0.013596 -0.397961 -0.043693
				CHANNELS 3 Zrotation Yrotation Xrotation
				JOINT LeftToe
				{
					OFFSET 0.026358 -0.055791 0.119288
					CHANNELS 3 Zrotation Yrotation Xrotation
					End Site
					{
						OFFSET 0.000000 0.000000 0.000000
					}
				}
			}
		}
	}
	JOINT RightUpLeg
	{
		OFFSET -0.067670 -0.090522 -0.004320
		CHANNELS 3 Zrotation Yrotation Xrotation
		JOINT RightLeg
		{
			OFFSET -0.038290 -0.382569 -0.008850
			CHANNELS 3 Zrotation Yrotation Xrotation
			JOINT RightFoot
			{
				OFFSET 0.015774 -0.398415 -0.042312
				CHANNELS 3 Zrotation Yrotation Xrotation
				JOINT RightToe
				{
					OFFSET -0.025372 -0.048144 0.123348
					CHANNELS 3 Zrotation Yrotation Xrotation
					End Site
					{
						OFFSET 0.000000 0.000000 0.000000
					}
				}
			}
		}
	}
	JOINT Spine
	{
		OFFSET -0.002533 0.108963 -0.026696
		CHANNELS 3 Zrotation Yrotation Xrotation
		JOINT Spine1
		{
			OFFSET 0.005487 0.135180 0.001092
			CHANNELS 3 Zrotation Yrotation Xrotation
			JOINT Spine2
			{
				OFFSET 0.001457 0.052922 0.025425
				CHANNELS 3 Zrotation Yrotation Xrotation
				JOINT Neck
				{
					OFFSET -0.002778 0.213870 -0.042857
					CHANNELS 3 Zrotation Yrotation Xrotation
					JOINT Head
					{
						OFFSET 0.005152 0.064970 0.051349
						CHANNELS 3 Zrotation Yrotation Xrotation
						End Site
						{
							OFFSET 0.000000 0.000000 0.000000
						}
					}
				}
				JOINT LeftShoulder
				{
					OFFSET 0.078845 0.121749 -0.034090
					CHANNELS 3 Zrotation Yrotation Xrotation
					JOINT LeftArm
					{
						OFFSET 0.090977 0.030469 -0.008868
						CHANNELS 3 Zrotation Yrotation Xrotation
						JOINT LeftForeArm
						{
							OFFSET 0.259612 -0.012772 -0.027456
							CHANNELS 3 Zrotation Yrotation Xrotation
							JOINT LeftHand
							{
								OFFSET 0.249234 0.008986 -0.001171
								CHANNELS 3 Zrotation Yrotation Xrotation
								End Site
								{
									OFFSET 0.000000 0.000000 0.000000
								}
							}
						}
					}
				}
				JOINT RightShoulder
				{
					OFFSET -0.081759 0.118833 -0.038615
					CHANNELS 3 Zrotation Yrotation Xrotation
					JOINT RightArm
					{
						OFFSET -0.096012 0.032551 -0.009143
						CHANNELS 3 Zrotation Yrotation Xrotation
						JOINT RightForeArm
						{
							OFFSET -0.253742 -0.013329 -0.021401
							CHANNELS 3 Zrotation Yrotation Xrotation
							JOINT RightHand
							{
								OFFSET -0.255298 0.007772 -0.005559
								CHANNELS 3 Zrotation Yrotation Xrotation
								End Site
								{
									OFFSET 0.000000 0.000000 0.000000
								}
							}
						}
					}
				}
			}
		}
	}
}
MOTION
Frames: 6
Frame Time: 0.050000
0.000000 0.990814 0.000000 0.691743 -2.671134 1.271990 5.016638 -0.042104 0.036369 -0.002491 0.222290 -6.393777 -2.056318 4.787851 24.387191 0.000000 0.000000 0.000000 -0.031554 -0.243085 2.515405 -3.887807 0.205761 -2.571426 0.871946 -6.232870 19.277498 0.000000 0.000000 0.000000 3.863231 -0.219545 2.331442 -3.163527 1.487893 -1.684832 -3.157129 2.898487 -2.419555 2.812926 -1.708061 -3.672017 0.000000 0.000000 0.000000 -13.754529 2.379710 -2.961758 -17.226144 -12.463159 -0.335459 13.115603 1.732623 0.151195 0.000000 0.000000 0.000000 11.368322 -8.214498 -4.595653 21.691609 6.957345 -0.879574 -12.820803 1.640057 0.191810 0.000000 0.000000 0.000000 
-0.002963 0.993281 0.002822 0.262606 -3.671876 1.880365 5.519694 -0.035031 0.162420 0.108277 0.255156 -7.372522 -1.114961 5.817395 24.344680 0.000000 0.000000 0.000000 0.426485 -0.199569 1.838528 -3.681180 0.175417 -2.664465 0.167330 -6.492882 15.733763 0.000000 0.000000 0.000000 4.610052 -0.235164 2.135796 -3.309688 1.556372 -1.283219 -4.016217 3.682015 -4.095121 1.824856 -0.778200 -5.313737 0.000000 0.000000 0.000000 -13.247085 3.182343 -3.363109 -15.443825 -11.097400 -0.393705 11.311161 3.759654 0.244839 0.000000 0.000000 0.000000 10.770671 -12.032744 -6.168249 20.522561 5.142116 -1.032525 -12.397863 2.408132 0.139370 0.000000 0.000000 0.000000 
-0.006924 0.994885 0.006084 0.614070 -4.331149 1.792348 5.874653 -0.036670 -0.073167 0.336852 0.179451 -5.792203 -0.835574 6.165827 24.809069 0.000000 0.000000 0.000000 0.305840 -0.218360 2.105262 -3.772094 0.136282 -3.266461 0.392534 -6.432313 16.389383 0.000000 0.000000 0.000000 4.482234 -0.299683 3.025003 -3.243316 1.447780 -4.877358 -4.612363 4.316020 -0.890347 3.761639 -2.276625 -4.532355 0.000000 0.000000 0.000000 -10.074414 5.812716 -3.869921 -17.452597 -12.619222 -0.367483 13.396590 6.775686 0.548648 0.000000 0.000000 0.000000 10.483415 -13.317669 -6.639166 18.681611 5.023653 -1.130527 -12.439939 -1.462755 0.444317 0.000000 0.000000 0.000000 
-0.011776 0.995340 0.009071 0.693532 -4.791249 2.707527 6.462476 -0.066641 -0.686364 0.796887 0.168736 -6.225378 -1.246062 5.717336 25.578535 0.000000 0.000000 0.000000 0.661670 -0.185152 1.567335 -3.783114 0.139256 -3.182269 0.389708 -6.290120 15.700480 0.000000 0.000000 0.000000 4.177774 -0.217012 1.943693 -3.053527 1.378529 -3.736851 -4.463004 3.441091 -1.831262 2.603276 -1.451120 -4.619486 0.000000 0.000000 0.000000 -9.399901 7.764072 -4.450537 -17.518833 -11.507149 -0.498849 15.174838 8.047419 0.799120 0.000000 0.000000 0.000000 8.590067 -13.954685 -6.605789 17.607064 4.918044 -1.000341 -11.704647 -1.834861 0.422821 0.000000 0.000000 0.000000 
-0.017339 0.995162 0.012039 0.744787 -5.174474 2.726085 7.012251 -0.057484 -0.683943 1.409074 0.102087 -5.670169 -1.363343 5.334465 24.963252 0.000000 0.000000 0.000000 1.027756 -0.164830 1.188071 -3.964294 0.190913 -2.617801 0.552822 -5.799073 14.905483 0.000000 0.000000 0.000000 3.983548 -0.214982 1.997006 -2.334217 1.050274 -4.362426 -4.851182 4.017137 -1.165218 3.100279 -1.905595 -3.853296 0.000000 0.000000 0.000000 -8.218607 7.534218 -4.137250 -17.756970 -9.965831 -0.679972 14.576124 7.604441 0.706590 0.000000 0.000000 0.000000 8.578363 -14.230602 -6.694874 16.632357 5.121401 -0.983829 -12.492976 -3.189147 0.571705 0.000000 0.000000 0.000000 
-0.022897 0.994693 0.014546 0.997187 -5.865748 2.761148 6.972653 -0.086803 -1.921397 2.037089 -0.076177 -3.223969 -1.740208 4.599639 24.573713 0.000000 0.000000 0.000000 0.719112 -0.153394 1.221117 -3.417107 0.195594 -1.885165 0.423344 -5.808147 13.992136 0.000000 0.000000 0.000000 3.780919 -0.196906 1.833684 -2.964283 1.328882 -3.635856 -4.166555 3.345592 -1.488932 2.608392 -1.558336 -3.978287 0.000000 0.000000 0.000000 -8.476247 7.925602 -4.261702 -16.640634 -10.046106 -0.690107 15.581606 6.109916 0.654705 0.000000 0.000000 0.000000 7.722287 -13.527901 -6.277395 16.609849 6.420290 -0.801871 -13.255760 -1.850483 0.475964 0.000000 0.000000 0.000000 
